<svg width="997" height="346" viewBox="0 0 997 346" fill="none" xmlns="http://www.w3.org/2000/svg">
<path d="M611 268H0C10.1041 261.448 65.9737 254.301 75.4835 254.896C84.9932 255.492 92.7198 252.514 96.286 240.601C99.8521 228.689 114.711 233.454 115.305 231.071C115.9 228.689 118.872 221.541 130.164 222.137C141.457 222.732 140.268 219.159 143.835 210.82C162.26 182.23 218.724 210.82 224.073 207.842C229.422 204.864 248.442 210.82 258.546 210.82C268.65 210.82 306.689 237.623 329.869 233.454C353.049 229.284 377.417 245.962 407.135 254.301C430.91 260.972 552.951 266.213 611 268Z" fill="#EB783A"/>
<path d="M715 51H271C278.342 46.2265 318.942 41.019 325.852 41.453C332.763 41.8869 338.377 39.7171 340.969 31.038C343.56 22.3589 354.358 25.8306 354.79 24.0947C355.222 22.3589 357.381 17.1515 365.588 17.5854C373.794 18.0194 372.93 15.4156 375.521 9.34026C388.911 -11.4896 429.942 9.34026 433.829 7.17049C437.716 5.00071 451.537 9.34026 458.879 9.34026C466.222 9.34026 493.864 28.8683 510.708 25.8306C527.553 22.7929 545.261 34.9436 566.856 41.019C584.132 45.8793 672.817 49.6981 715 51Z" fill="#EB783A"/>
<path d="M429 176H997C987.607 169.916 935.669 163.279 926.829 163.832C917.988 164.385 910.805 161.62 907.49 150.558C904.175 139.497 890.362 143.921 889.809 141.709C889.257 139.497 886.494 132.86 875.996 133.413C865.498 133.966 866.603 130.647 863.288 122.904C846.16 96.3564 793.669 122.904 788.697 120.139C783.724 117.373 766.043 122.904 756.65 122.904C747.257 122.904 711.895 147.793 690.346 143.921C668.798 140.05 646.144 155.536 618.518 163.279C596.416 169.474 482.964 174.341 429 176Z" fill="#EB783A"/>
<path d="M583 346H975C968.518 341.788 932.673 337.193 926.572 337.576C920.471 337.959 915.514 336.045 913.226 328.387C910.938 320.728 901.405 323.792 901.023 322.26C900.642 320.728 898.735 316.134 891.49 316.517C884.245 316.899 885.008 314.602 882.72 309.241C870.899 290.862 834.673 309.241 831.241 307.327C827.809 305.412 815.607 309.241 809.125 309.241C802.642 309.241 778.237 326.472 763.366 323.792C748.494 321.111 732.86 331.833 713.794 337.193C698.541 341.482 620.243 344.851 583 346Z" fill="#EB783A"/>
</svg>
