<svg width="122" height="217" viewBox="0 0 122 217" fill="none" xmlns="http://www.w3.org/2000/svg">
<path d="M57.9056 4.76684C59.0754 12.3609 62.3509 30.7864 66.0943 43.7362C69.8191 56.6217 81.9602 73.3456 87.651 80.2054C81.0786 76.6423 69.9055 71.4344 77.7924 79.1084C85.6793 86.7823 88.8773 91.4986 89.4905 92.8976C91.1887 93.4971 93.1983 94.6961 87.651 94.6961C80.7169 94.6961 76.0377 92.8976 89.4905 103.689C102.943 114.481 84.8113 104.888 83.6414 104.888C82.4716 104.888 74.283 102.49 85.9811 114.481C97.6792 126.471 101.774 128.27 82.4716 124.673C63.1698 121.075 80.7169 130.068 91.8301 137.263C102.943 144.457 108.207 149.253 95.3396 146.855C82.4716 144.457 90.0754 155.249 101.774 161.843C113.472 168.438 101.189 166.04 95.3396 166.04C89.4905 166.04 107.623 174.433 114.057 181.628C120.49 188.822 112.887 188.822 105.868 185.225C100.253 182.347 113.616 206.208 122 217H-6.10352e-05C6.4339 207.807 18.5999 189.661 15.7924 190.621C12.283 191.82 6.43391 190.021 8.18862 188.822C9.94334 187.623 27.4905 169.038 19.8867 168.438C12.283 167.839 13.4528 166.64 14.6226 166.04C15.7924 165.441 36.2641 143.258 26.9056 146.855C17.5471 150.452 16.9622 148.654 22.2264 144.457C27.4905 140.26 32.7547 125.272 31 126.471C29.5962 127.43 25.3459 128.07 23.3962 128.27C24.9559 126.471 29.2452 121.195 33.9245 114.481C39.7735 106.087 38.6037 106.687 37.4339 107.286C36.2641 107.886 26.9056 110.284 28.0754 109.085C29.2452 107.886 42.1132 91.099 39.7735 92.8976C27.1396 101.051 27.4905 98.693 29.2452 96.4947C34.3144 90.0998 43.049 78.389 37.4339 82.7056C30.415 88.1013 30.9999 83.3051 33.9245 77.9093C48.5471 55.7268 53.2264 15.5584 54.3962 4.76684C55.332 -3.86637 57.1257 1.16967 57.9056 4.76684Z" fill="#1B1430"/>
</svg>
